<?xml version="1.0" standalone="no"?>
<!DOCTYPE svg PUBLIC "-//W3C//DTD SVG 20010904//EN"
 "http://www.w3.org/TR/2001/REC-SVG-20010904/DTD/svg10.dtd">
<svg version="1.0" xmlns="http://www.w3.org/2000/svg"
 width="832.000000pt" height="182.000000pt" viewBox="0 0 832.000000 182.000000"
 preserveAspectRatio="xMidYMid meet">

<g transform="translate(0.000000,182.000000) scale(0.100000,-0.100000)"
fill="#000000" stroke="none">
<path d="M540 1665 c-185 -52 -298 -225 -340 -520 -25 -179 -7 -524 36 -665
34 -114 107 -230 145 -230 29 0 23 29 -15 83 -83 117 -126 309 -126 567 0 471
142 720 412 722 81 0 133 -14 193 -54 59 -39 117 -126 146 -217 21 -68 46
-217 38 -225 -2 -2 -56 -7 -120 -11 l-116 -8 -6 89 c-8 112 -21 157 -57 197
-24 27 -36 32 -72 32 -83 0 -126 -53 -156 -193 -13 -63 -16 -145 -16 -437 -1
-457 10 -525 98 -602 65 -58 155 -66 253 -23 82 36 159 143 201 280 25 83 48
248 36 260 -11 10 -309 34 -323 26 -5 -3 -12 -45 -16 -93 -8 -111 -20 -155
-45 -178 -24 -22 -26 -53 -5 -62 43 -16 91 78 101 195 l7 82 37 0 c20 0 72 -3
115 -7 l78 -6 -6 -56 c-27 -245 -144 -410 -295 -413 -98 -2 -154 62 -173 198
-16 111 -16 677 0 784 20 133 52 190 109 190 45 0 67 -62 80 -220 6 -83 9 -95
26 -98 29 -6 301 19 317 28 10 7 10 26 0 106 -41 315 -177 480 -405 490 -53 3
-100 -1 -136 -11z"/>
<path d="M7670 1665 c-159 -45 -259 -172 -317 -403 -20 -81 -25 -131 -30 -299
-6 -218 4 -342 38 -464 35 -125 109 -249 150 -249 29 0 24 35 -11 78 -92 116
-138 346 -127 642 6 156 23 280 50 356 45 124 123 226 203 263 97 46 236 43
327 -7 107 -58 184 -208 203 -398 l7 -62 -112 -7 c-61 -4 -114 -7 -118 -6 -5
0 -9 18 -10 38 -5 74 -25 188 -38 213 -24 47 -53 65 -102 63 -24 -1 -55 -9
-68 -17 -82 -54 -111 -256 -102 -706 7 -371 20 -437 101 -508 64 -56 156 -64
253 -22 84 37 161 145 201 285 27 90 48 243 36 254 -10 10 -310 35 -323 27 -4
-3 -11 -49 -15 -103 -8 -101 -21 -148 -49 -172 -21 -17 -22 -50 -2 -58 44 -16
93 82 102 200 l6 82 115 -9 115 -9 -6 -56 c-20 -182 -102 -343 -200 -390 -57
-27 -138 -28 -181 -1 -83 51 -99 143 -99 565 0 433 20 553 96 579 61 22 87
-26 101 -188 8 -87 15 -121 25 -124 28 -9 311 21 322 34 24 29 -27 276 -77
377 -39 76 -114 150 -186 182 -77 34 -195 43 -278 20z"/>
<path d="M1284 1647 c-2 -7 55 -193 128 -413 l132 -399 6 -335 5 -335 160 0
160 0 3 328 2 328 -22 -3 -23 -3 -3 -303 -2 -303 -113 3 -112 3 -5 320 -6 320
-122 367 c-67 201 -122 371 -122 377 0 8 31 11 102 9 l103 -3 107 -310 c76
-220 113 -315 128 -327 14 -11 39 -18 65 -18 76 0 82 12 195 359 56 171 100
319 98 329 -3 15 -20 17 -149 20 -109 2 -149 -1 -156 -10 -6 -7 -25 -75 -44
-150 -25 -103 -30 -141 -22 -149 26 -26 41 2 73 130 l32 131 105 0 c85 0 104
-3 100 -14 -3 -7 -44 -135 -92 -282 -48 -148 -93 -279 -101 -291 -18 -28 -59
-30 -75 -5 -7 11 -60 158 -118 328 l-107 309 -152 3 c-121 2 -154 0 -158 -11z"/>
<path d="M2345 1648 c-3 -8 -4 -70 -3 -139 l3 -124 222 -5 c217 -5 222 -6 247
-29 35 -33 49 -82 44 -153 -4 -47 -10 -64 -31 -86 -26 -26 -34 -27 -146 -32
-161 -7 -161 -7 -161 -151 0 -147 2 -149 159 -149 72 0 125 -5 141 -13 39 -19
64 -81 63 -158 -1 -135 -36 -159 -231 -159 -133 0 -133 0 -130 -23 3 -21 7
-22 118 -25 147 -4 193 3 230 35 51 42 64 78 65 173 0 67 -5 95 -22 132 -33
73 -56 82 -208 88 l-130 5 0 95 0 95 122 5 c102 4 126 8 150 26 45 33 63 79
63 164 0 101 -26 156 -90 188 -41 21 -57 22 -238 22 l-193 0 3 88 3 87 215 3
c323 4 383 -11 452 -109 109 -156 84 -432 -46 -509 -70 -42 -71 -52 -8 -84 62
-32 95 -68 129 -141 26 -56 28 -69 28 -180 -1 -139 -22 -209 -83 -277 -77 -85
-149 -100 -462 -96 l-225 3 -5 520 c-4 407 -8 520 -17 519 -7 -1 -18 -2 -23
-2 -7 -1 -9 -185 -8 -544 l3 -543 285 0 c313 0 358 6 434 56 53 35 118 132
140 208 20 70 21 219 1 295 -23 87 -44 126 -98 179 l-48 47 30 26 c16 13 43
51 58 82 27 54 28 63 28 202 0 136 -2 148 -27 202 -35 76 -97 141 -161 169
-50 23 -63 24 -345 27 -242 3 -293 1 -297 -10z"/>
<path d="M3415 1648 c-3 -7 -4 -180 -3 -383 3 -362 3 -370 23 -370 20 0 20 8
25 355 l5 355 325 0 325 0 3 -97 3 -98 -213 -2 -213 -3 0 -190 0 -190 163 -3
162 -2 0 -95 0 -95 -238 0 c-227 0 -240 -1 -282 -22 -33 -17 -51 -35 -68 -68
-22 -44 -22 -52 -20 -310 l3 -265 333 -3 333 -2 -18 25 c-15 20 -26 24 -68 25
-27 0 -84 -9 -125 -20 -41 -11 -85 -20 -97 -20 -33 0 -29 28 5 33 15 2 -22 5
-82 6 -88 1 -113 -2 -127 -15 -18 -16 -44 -11 -34 7 4 5 -12 9 -34 9 l-41 0 0
230 c0 253 5 283 56 317 25 16 58 19 289 23 l260 5 0 140 0 140 -163 3 -163 2
3 143 3 142 210 5 210 5 0 145 0 145 -373 3 c-293 2 -374 0 -377 -10z"/>
<path d="M4365 1648 c-3 -7 -4 -135 -3 -283 l3 -270 22 -3 23 -3 2 258 3 258
235 0 c224 -1 237 -2 287 -24 127 -56 193 -194 194 -401 1 -160 -36 -275 -112
-351 -22 -22 -39 -46 -39 -55 0 -14 167 -539 177 -556 2 -5 -49 -8 -115 -8
l-119 0 -62 228 c-34 125 -68 245 -75 267 l-13 40 -69 0 -69 0 -3 -267 -2
-268 -111 0 -110 0 3 355 c2 273 6 357 16 367 9 9 64 14 192 18 202 6 217 11
255 86 17 32 20 59 20 154 0 104 -2 119 -25 159 -35 62 -77 82 -165 79 l-70
-3 0 -145 c0 -143 0 -145 23 -148 22 -3 22 -2 22 122 l0 126 43 0 c88 0 120
-51 120 -190 0 -102 -17 -161 -51 -176 -9 -4 -97 -10 -194 -13 -178 -6 -178
-6 -205 -34 l-28 -27 0 -388 0 -387 155 0 155 0 5 265 5 265 24 0 c23 0 27
-11 92 -244 37 -134 72 -254 78 -267 10 -24 12 -24 171 -24 131 0 162 3 166
15 3 7 -37 144 -88 303 l-94 289 33 34 c111 112 154 383 93 581 -25 83 -88
180 -137 212 -84 55 -108 59 -390 64 -214 3 -264 1 -268 -10z"/>
<path d="M5650 1644 c-80 -21 -183 -93 -224 -157 -91 -139 -85 -328 16 -442
57 -64 131 -98 320 -145 186 -47 234 -67 279 -118 57 -65 74 -115 74 -222 0
-82 -4 -103 -27 -152 -36 -78 -101 -140 -174 -168 -79 -30 -225 -33 -301 -7
-61 21 -134 82 -168 141 -24 41 -68 156 -62 162 1 2 39 19 84 38 l82 35 16
-50 c34 -102 131 -165 214 -141 80 24 121 82 121 172 0 29 -8 68 -17 87 -19
42 -89 95 -117 91 -35 -5 -30 -34 8 -56 54 -32 78 -77 73 -135 -11 -130 -155
-148 -216 -28 -11 20 -23 54 -26 75 -4 21 -14 40 -22 43 -19 8 -253 -85 -260
-103 -6 -17 31 -132 63 -197 85 -166 268 -239 485 -193 91 20 138 46 194 108
72 79 98 144 103 254 5 109 -12 178 -61 250 -56 82 -140 122 -367 175 -233 54
-324 143 -324 319 1 99 33 170 110 239 69 61 140 86 244 85 127 0 222 -59 289
-178 52 -92 53 -90 -39 -136 l-80 -40 -10 25 c-6 15 -10 29 -10 32 0 19 -51
69 -88 85 -51 23 -100 18 -144 -14 -56 -40 -80 -128 -52 -196 17 -44 68 -96
88 -89 20 7 18 39 -4 59 -30 28 -53 85 -46 114 3 12 18 36 32 53 21 26 33 31
69 31 37 0 47 -5 74 -35 16 -19 35 -53 41 -75 6 -23 17 -43 24 -46 8 -3 64 20
126 52 l112 57 -6 39 c-9 53 -59 150 -103 199 -92 101 -247 142 -393 103z"/>
<path d="M6367 1653 c-4 -3 -7 -88 -7 -189 0 -187 1 -194 41 -194 4 0 10 75
11 168 l3 167 122 3 c111 2 122 4 116 20 -4 9 -11 20 -17 24 -14 10 -260 10
-269 1z"/>
<path d="M6676 1635 l16 -25 187 -2 186 -3 3 -97 3 -98 -213 -2 -213 -3 0
-190 0 -190 163 -3 162 -2 0 -95 0 -95 -238 0 c-227 0 -240 -1 -282 -22 -33
-17 -51 -35 -68 -68 -22 -44 -22 -52 -20 -310 l3 -265 375 0 375 0 0 150 0
150 -212 3 -213 2 0 91 c0 88 -1 90 -22 87 -22 -3 -23 -7 -23 -113 l0 -110
210 -5 210 -5 3 -103 3 -102 -328 2 -328 3 -3 227 c-4 348 -21 331 343 338
l260 5 0 140 0 140 -163 3 -163 2 3 143 3 142 210 5 210 5 0 145 0 145 -228 3
-228 2 17 -25z"/>
<path d="M6362 1068 c3 -165 4 -173 23 -173 19 0 20 8 23 173 l2 172 -25 0
-25 0 2 -172z"/>
<path d="M3694 637 c-2 -7 -3 -58 -2 -113 l3 -99 212 -3 212 -2 3 -111 c3 -98
1 -112 -17 -129 -19 -20 -19 -20 12 -20 17 0 35 6 41 12 15 19 16 266 1 284
-9 11 -52 14 -215 14 l-204 0 0 90 c0 84 -1 90 -20 90 -11 0 -23 -6 -26 -13z"/>
</g>
</svg>
